<?xml version="1.0" encoding="UTF-8"?>
<svg width="512" height="512" viewBox="0 0 512 512" fill="none" xmlns="http://www.w3.org/2000/svg">
  <rect width="512" height="512" fill="#3498db"/>
  <path d="M256 96C167.635 96 96 167.635 96 256C96 344.365 167.635 416 256 416C344.365 416 416 344.365 416 256C416 167.635 344.365 96 256 96ZM256 384C185.307 384 128 326.693 128 256C128 185.307 185.307 128 256 128C326.693 128 384 185.307 384 256C384 326.693 326.693 384 256 384Z" fill="white"/>
  <path d="M256 160C203.635 160 160 203.635 160 256C160 308.365 203.635 352 256 352C308.365 352 352 308.365 352 256C352 203.635 308.365 160 256 160ZM256 320C221.307 320 192 290.693 192 256C192 221.307 221.307 192 256 192C290.693 192 320 221.307 320 256C320 290.693 290.693 320 256 320Z" fill="white"/>
  <circle cx="256" cy="256" r="32" fill="white"/>
</svg>